<svg width="26" height="32" viewBox="0 0 26 32" fill="none" xmlns="http://www.w3.org/2000/svg">
<g clip-path="url(#clip0_4094_161190)">
<path d="M10.987 31.1662C4.92849 31.1662 0 26.2081 0 20.1144C0 14.0206 4.92899 9.0625 10.987 9.0625C17.045 9.0625 21.974 14.0206 21.974 20.1144C21.974 26.2081 17.0459 31.1662 10.987 31.1662ZM10.987 10.1181C5.50765 10.1181 1.04938 14.6017 1.04938 20.1138C1.04938 25.626 5.50765 30.1096 10.987 30.1096C16.4663 30.1096 20.9251 25.625 20.9251 20.1129C20.9251 14.6007 16.4673 10.1181 10.987 10.1181Z" fill="#2196F3"/>
<path d="M18.96 20.6045C18.6182 19.3304 15.4851 19.1928 13.6203 19.6599C12.6437 19.9055 11.6456 20.2248 10.6162 20.4085C11.3697 21.081 12.1788 21.717 13.34 21.8752C16.2211 22.2662 18.0112 21.357 18.96 20.6045Z" fill="#2196F3"/>
<path d="M13.34 21.8749C12.1764 21.7167 11.3697 21.0807 10.6162 20.4082C9.45013 19.3674 8.41298 18.2396 6.37723 18.664C3.14069 19.3389 2.71488 23.1898 5.21404 25.6645C6.28706 26.7948 7.66455 27.5858 9.17779 27.9403C10.691 28.2949 12.2742 28.1977 13.7333 27.6607C15.1924 27.1236 16.4641 26.1701 17.3925 24.9169C18.3209 23.6636 18.8656 22.1652 18.96 20.6052C18.0112 21.3567 16.221 22.2659 13.34 21.8749Z" fill="#673AB7"/>
<path d="M15.034 13.5409C14.6301 14.4118 18.2304 15.378 18.6611 18.2701C18.8687 15.4231 15.5335 12.4642 15.034 13.5409Z" fill="#2196F3"/>
<path d="M7.46619 17.1749C8.11524 16.9045 8.42345 16.156 8.15463 15.5031C7.8858 14.8502 7.14167 14.5402 6.49262 14.8106C5.84357 15.081 5.53536 15.8295 5.80418 16.4825C6.07306 17.1353 6.81714 17.4453 7.46619 17.1749Z" fill="#673AB7"/>
<path d="M10.3549 13.6611C10.6585 13.3557 10.6585 12.8606 10.3549 12.5552C10.0513 12.2498 9.55909 12.2498 9.25551 12.5552C8.95194 12.8606 8.95194 13.3557 9.25551 13.6611C9.55909 13.9665 10.0513 13.9665 10.3549 13.6611Z" fill="#2196F3"/>
<path d="M13.1014 8.63488C14.2245 5.29772 13.4696 2.63152 11.1614 1.36523C9.58359 1.68795 8.647 2.45617 8.12549 3.51665C11.2204 3.26467 13.1844 5.21323 13.1014 8.63488Z" fill="#2196F3"/>
<path d="M25.6983 5.72034C20.1389 3.71332 16.6304 4.40148 16.0786 8.97448C19.2648 12.2812 22.474 10.6985 25.6983 5.72034Z" fill="#2196F3"/>
<path d="M21.2765 3.90794C21.5343 2.7998 21.6681 1.49028 21.6881 0C15.9226 1.29135 13.3224 3.7591 15.2839 7.92098C15.3816 7.94456 15.4754 7.96371 15.5696 7.98337C16.0281 4.72674 18.0463 3.52087 21.2765 3.90794Z" fill="#2196F3"/>
</g>
<defs>
<clipPath id="clip0_4094_161190">
<rect width="25.6983" height="31.1662" fill="white"/>
</clipPath>
</defs>
</svg>
